<?xml version="1.0" standalone="no"?>
<!DOCTYPE svg PUBLIC "-//W3C//DTD SVG 1.1//EN" "http://www.w3.org/Graphics/SVG/1.1/DTD/svg11.dtd" >
<svg xmlns="http://www.w3.org/2000/svg">
  <metadata>Created by iconfont</metadata>
  <defs>
  <font id="erabbit" horiz-adv-x="1024">
    <font-face
      font-family="erabbit"
      font-weight="400"
      font-stretch="normal"
      units-per-em="1024"
      ascent="896"
      descent="-128"
    />
      <missing-glyph />
      
      <glyph glyph-name="up" unicode="&#59071;" d="M196.88792667 284.47429462c-14.95732691-14.95732691-14.95732691-39.20717888 0-54.16450579 14.80771774-14.80771774 38.72364206-14.95613002 53.71328454-0.44404003L251.05243249 230.30978883l150.87666417 150.8766642c7.47806501 7.47806501 19.60358946 7.47806501 27.08165447 0L579.88861219 230.30978883c14.80652086-14.80771774 38.72244518-14.95613002 53.71208765-0.44404003L634.0519211 230.30978883c14.80771774 14.80771774 14.95613002 38.72364206 0.44404005 53.71328453l-0.44404005 0.45122126-164.41808983 164.41689299c-29.61423858 29.61543544-77.44608721 29.9110632-107.4253722 0.88927695l-0.90244253-0.88927695-164.41808987-164.41689299z"  horiz-adv-x="1024" />
      
      <glyph glyph-name="down" unicode="&#59072;" d="M196.88792667 405.94497621c-14.95732691 14.95732691-14.95732691 39.20717888 0 54.16450581 14.80771774 14.80771774 38.72364206 14.95613002 53.71328454 0.44404003L251.05243249 460.10948202l150.87666417-150.8766642c7.47806501-7.47806501 19.60358946-7.47806501 27.08165447 0L579.88861219 460.10948202c14.80652086 14.80771774 38.72244518 14.95613002 53.71208765 0.44404003L634.0519211 460.10948202c14.80771774-14.80771774 14.95613002-38.72364206 0.44404005-53.71328453l-0.44404005-0.45122128-164.41808983-164.41689298c-29.61423858-29.61543544-77.44608721-29.9110632-107.4253722-0.88927693l-0.90244253 0.88927693-164.41808987 164.41689298z"  horiz-adv-x="1024" />
      
      <glyph glyph-name="left" unicode="&#59073;" d="M657.01129151 745.49002075c11.10964966 11.10964966 29.12173462 11.10964966 40.23138427 0 10.99758911-10.99758911 11.10800171-28.76165771 0.32958984-39.89520263l-0.32958984-0.33535767-311.20202637-311.20202637c-5.55358887-5.55441284-5.55358887-14.55963135 0-20.11569213L697.24267578 62.740539549999994c10.99758911-10.99758911 11.10800171-28.76165771 0.32958984-39.89520263l-0.32958984-0.33535767c-11.00006104-11.00006104-28.76248169-11.10882568-39.89685059-0.33123779l-0.33453368 0.33041382L335.75183105 343.76779175c-21.99600219 21.99682617-22.21600342 57.5241394-0.65917968 79.79205322l0.65917969 0.67071534L657.01129151 745.48919677z"  horiz-adv-x="1024" />
      
      <glyph glyph-name="right" unicode="&#59074;" d="M358.02792969 769.58935547c-11.84941406 11.85029297-31.06318359 11.85029297-42.91259766 0-11.73339844-11.73076172-11.84941406-30.67910156-0.35419922-42.55488281l0.35332032-0.35771485 331.9461914-331.94882812c5.92646484-5.92470703 5.92646484-15.53027344 0-21.45673828L315.11621094 41.323242189999974c-11.73339844-11.73076172-11.84941406-30.67910156-0.35419922-42.55488281l0.35332031-0.35771485c11.73076172-11.73164063 30.67910156-11.84941406 42.55488281-0.3524414l0.35771485 0.3524414 342.67675781 342.67587891c23.46416016 23.46328125 23.69882812 61.35908203 0.70400391 85.11152344l-0.703125 0.71542968-342.67675782 342.67587891z"  horiz-adv-x="1024" />
      
      <glyph glyph-name="caret" unicode="&#59075;" d="M415.55376447 690.92282701L722.47659148 417.56968421c20.78123306-18.38339849 20.78123306-50.3545263 0-67.93864662L415.55376447 76.27789479c-29.57329323-26.37618045-76.73070677-5.59494737-76.73070676 34.36896242l0 546.70628558c0 39.16463158 47.15741353 60.74514284 76.73070676 33.56968422z"  horiz-adv-x="1024" />
      
      <glyph glyph-name="comment" unicode="&#59077;" d="M511.95 195.139c-15.299 0-29.755 5.816-40.692 16.374L318.102 359.78c-28.09 26.994-43.62 63.07-43.62 101.529s15.53 74.555 43.725 101.655c27.9 26.763 64.841 41.472 104.015 41.472 33.506 0 62.818-10.536 89.2-32.115 26.173 21.579 55.802 32.115 90.255 32.115 39.175 0 76.095-14.71 103.952-41.409 28.237-27.015 43.79-63.133 43.79-101.717 0-38.479-15.531-74.555-43.705-101.634l-153.05-148.142c-10.96-10.579-25.415-16.395-40.714-16.395z m-89.728 344.56c-22.4 0-43.43-8.323-59.193-23.433-15.341-14.75-23.812-34.285-23.812-54.957s8.45-40.165 23.812-54.916l148.92-144.18 148.838 144.075c15.446 14.834 23.896 34.327 23.896 55.02 0 21.052-8.24 40.039-23.812 54.937l-0.022 0.042c-15.741 15.088-36.771 23.412-59.173 23.412-21.156 0-37.741-6.575-53.587-21.284l-35.38-42.735-36.5 41.45c-16.583 15.594-33.293 22.57-53.987 22.57z m88.211-563.57c-56.264 0-112.507 11.21-165.969 33.633C238.721 54.12 156.601 136.978 113.191 243.1c-89.602 219.05 15.72 470.154 234.771 559.776 219.009 89.644 470.154-15.72 559.798-234.77 26.699-65.327 37.003-136.72 29.776-206.471-1.834-17.785-17.638-30.43-35.528-28.87-17.785 1.854-30.704 17.743-28.87 35.528 6.133 59.193-2.612 119.799-25.308 175.305-76.095 186.008-289.414 275.42-475.34 199.347-186.03-76.094-275.462-289.328-199.368-475.338 36.835-90.128 106.585-160.49 196.376-198.147 89.75-37.636 188.833-38.1 278.962-1.222 16.647 6.806 35.466-1.2 42.23-17.7 6.764-16.564-1.16-35.445-17.701-42.23-52.472-21.453-107.514-32.18-162.556-32.18z m292.974 124.9c-0.422 0-0.843 0-1.265 0.02-17.848 0.697-31.778 15.72-31.103 33.59l4.088 107.008c0.696 17.848 16.225 31.609 33.59 31.103 17.848-0.696 31.778-15.72 31.103-33.59l-4.088-107.007c-0.673-17.428-15.024-31.125-32.325-31.125z m107.008-4.089c-0.422 0-0.843 0-1.265 0.022l-107.007 4.088c-17.848 0.696-31.778 15.72-31.103 33.59 0.696 17.848 15.889 31.398 33.59 31.103l107.007-4.088c17.848-0.696 31.778-15.72 31.103-33.59-0.674-17.428-15.025-31.125-32.325-31.125z"  horiz-adv-x="1024" />
      
      <glyph glyph-name="currency" unicode="&#59078;" d="M518.17-29.456c-169.099 0-329.669 100.618-397.561 266.537-89.52 218.944 15.73 469.876 234.653 559.417 218.797 89.56 469.834-15.71 559.396-234.612 26.68-65.302 36.957-136.648 29.734-206.351-1.853-17.753-17.669-30.387-35.525-28.829-17.753 1.853-30.662 17.752-28.829 35.525 6.15 59.132-2.59 119.696-25.27 175.164C778.726 723.277 565.53 812.628 379.753 736.608c-185.904-76.02-275.297-289.11-199.255-475.035C256.54 75.69 469.693-13.64 655.513 62.36c16.615 6.801 35.42-1.2 42.2-17.69 6.76-16.551-1.158-35.42-17.688-42.2-52.983-21.671-107.86-31.927-161.854-31.927z m292.185 124.583c-0.421 0-0.842 0-1.264 0.021-17.836 0.695-31.756 15.71-31.082 33.568l4.086 106.934c0.694 17.837 16.193 31.84 33.567 31.082 17.836-0.695 31.756-15.71 31.082-33.567l-4.085-106.935c-0.673-17.415-15.015-31.103-32.304-31.103z m106.956-4.086c-0.421 0-0.842 0-1.264 0.021l-106.956 4.085c-17.836 0.675-31.756 15.71-31.082 33.568 0.695 17.836 15.858 31.63 33.568 31.082l106.956-4.085c17.836-0.675 31.756-15.71 31.082-33.568-0.675-17.414-15.015-31.103-32.304-31.103zM629.716 275.134H405.55c-17.858 0-32.346 14.487-32.346 32.345 0 17.858 14.488 32.346 32.346 32.346h224.166c17.858 0 32.346-14.488 32.346-32.346 0-17.858-14.488-32.345-32.346-32.345z m20.406 92.046H385.144c-17.858 0-32.346 14.488-32.346 32.346 0 17.857 14.488 32.345 32.346 32.345h264.978c17.857 0 32.345-14.488 32.345-32.345 0-17.858-14.488-32.346-32.345-32.346zM517.644 181.76c-17.858 0-32.346 14.489-32.346 32.347v248.49c0 17.857 14.488 32.345 32.346 32.345 17.857 0 32.345-14.488 32.345-32.346v-248.49c0-17.857-14.488-32.345-32.345-32.345z m0 243.31c-8.276 0-16.552 3.158-22.87 9.475L394.557 534.741c-12.635 12.635-12.635 33.104 0 45.739 12.635 12.635 33.104 12.635 45.739 0l100.216-100.196c12.635-12.635 12.635-33.104 0-45.739-6.316-6.317-14.592-9.476-22.868-9.476z m-0.274 0c-8.275 0-16.552 3.158-22.87 9.475-12.634 12.635-12.634 33.104 0 45.739l105.903 105.881c12.635 12.635 33.104 12.635 45.74 0 12.634-12.634 12.634-33.104 0-45.738L540.238 434.545c-6.318-6.317-14.593-9.476-22.869-9.476z"  horiz-adv-x="1024" />
      
      <glyph glyph-name="gift" unicode="&#59079;" d="M494.623-31.488c-56.402 0-112.784 11.238-166.378 33.715C222.24 46.694 139.918 129.757 96.402 236.14c-43.518 106.363-42.99 223.33 1.457 329.314 44.468 106.003 127.53 188.326 233.913 231.843 106.32 43.496 223.289 43.01 329.313-1.457C767.09 751.372 849.412 668.31 892.93 561.926c26.764-65.423 37.095-136.994 29.849-206.958-1.838-17.83-17.682-30.504-35.617-28.941-17.829 1.859-30.779 17.787-28.94 35.616 6.146 59.381-2.62 120.136-25.372 175.715-36.925 90.35-106.847 160.885-196.86 198.635-89.992 37.728-189.32 38.194-279.65 1.225-90.35-36.926-160.884-106.849-198.635-196.86s-38.194-189.32-1.225-279.65c36.926-90.35 106.848-160.885 196.86-198.636 89.97-37.728 189.299-38.194 279.65-1.225 16.688 6.823 35.552-1.204 42.334-17.745 6.781-16.604-1.162-35.531-17.745-42.334-52.6-21.504-107.777-32.256-162.955-32.256zM788.32 93.718c-0.422 0-0.845 0-1.268 0.021-17.892 0.697-31.855 15.76-31.18 33.673l4.099 107.271c0.696 17.893 16.16 31.94 33.673 31.18 17.892-0.696 31.855-15.759 31.18-33.673l-4.099-107.27c-0.675-17.472-15.06-31.202-32.405-31.202z m107.271-4.099c-0.422 0-0.845 0-1.267 0.022l-107.272 4.098c-17.892 0.697-31.855 15.76-31.18 33.673 0.697 17.893 15.823 31.73 33.673 31.18l107.271-4.098c17.893-0.697 31.857-15.759 31.18-33.673-0.675-17.47-15.06-31.202-32.405-31.202zM685.337 390.815h-348.98c-38.51 0-69.86 31.35-69.86 69.86V517.14c0 38.51 31.35 69.839 69.86 69.839h348.98c38.51 0 69.859-31.328 69.859-69.839v-56.466c0-38.51-31.35-69.859-69.86-69.859z m-348.98 131.269c-2.747 0-4.964-2.219-4.964-4.944v-56.466a4.958 4.958 0 0 1 4.964-4.964h348.98a4.958 4.958 0 0 1 4.964 4.964V517.14c0 2.725-2.219 4.944-4.964 4.944h-348.98z m297.647-355.401H387.69c-44.658 0-80.992 36.334-80.992 80.991V374.718c0 44.658 36.335 80.991 80.992 80.991h246.314c44.658 0 80.991-36.334 80.991-80.991v-127.044c0-44.657-36.334-80.991-80.991-80.991zM387.69 390.815c-8.872 0-16.097-7.224-16.097-16.096v-127.044c0-8.872 7.225-16.096 16.097-16.096h246.314c8.872 0 16.096 7.224 16.096 16.096V374.72c0 8.872-7.224 16.096-16.096 16.096H387.69z"  horiz-adv-x="1024" />
      
      <glyph glyph-name="handset" unicode="&#59080;" d="M851.56099972 552.16657282C836.00781447 608.5862407 769.78975947 791.4886691199999 530.46925797 791.4886691199999 293.0529352 791.4886691199999 224.92990408 608.54637097 211.3215647 552.12750047 166.56857989 534.66933909 104.27849161 487.93323345 104.27849161 396.4425482c0-89.50756442 62.28929088-140.13256442 105.09902462-159.57384664 5.83214544-35.0335398 23.32937918-112.87601595 99.22780682-159.57384662 54.51389436-35.03274241 120.65300725-42.80973373 165.40678948-44.75378221 9.72024241-19.44048482 29.20059697-31.14464544 50.625-31.14464546 33.04962158 0 58.36212158 25.27342765 58.36212157 58.36212159 0 31.14544283-25.27342765 58.40119393-58.36212157 58.40119393-23.36845152 0-42.80973373-13.60833937-52.56904849-35.03274241-38.88256442 1.94404848-93.39645877 9.72024241-138.15024099 36.97758828-72.01033069 44.75378221-75.89842765 132.31729816-75.89842766 136.20539511V528.7981213c3.88809697 23.32937918 46.69783069 210.19884663 272.44986258 210.19884664 225.71295953 0 268.56096822-188.7744436 272.44986257-210.19884664v-274.39311366c0-7.77699133 3.88809697-15.55318525 9.72024241-21.38612809 3.88809697-3.88809697 9.72024241-5.83214544 15.55318525-5.83214545 1.94404848 0 5.83214544 0 7.77619393 1.94404849 42.84880607 13.60913677 122.63533069 64.19506442 122.63533069 165.40599209 0 93.39645877-64.23333937 140.09428947-107.0430731 157.62979814z"  horiz-adv-x="1072" />
      
      <glyph glyph-name="check" unicode="&#59081;" d="M493.273-23.008c-169.088 0-329.668 100.631-397.535 266.561-43.376 106.022-42.85 222.614 1.454 328.257s127.12 187.724 233.142 231.102c218.825 89.47 469.845-15.73 559.38-234.618C916.394 503.04 926.69 431.697 919.467 362c-1.853-17.772-17.835-30.407-35.502-28.848-17.772 1.853-30.68 17.73-28.848 35.502 6.127 59.15-2.612 119.71-25.29 175.153-76.057 185.89-289.112 275.299-475.003 199.219-185.87-76.037-275.236-289.113-199.2-474.982 36.808-90.061 106.507-160.37 196.23-197.998 89.704-37.65 188.692-38.093 278.774-1.243 16.55 6.802 35.397-1.2 42.177-17.71 6.76-16.529-1.158-35.417-17.709-42.177-52.979-21.667-107.832-31.923-161.823-31.923zM785.44 101.565c-0.422 0-0.842 0-1.264 0.022-17.835 0.673-31.754 15.709-31.08 33.564l4.085 106.95c0.695 17.834 15.793 31.88 33.565 31.079 17.835-0.674 31.754-15.709 31.08-33.564l-4.086-106.95c-0.673-17.413-15.013-31.1-32.3-31.1z m106.927-4.085c-0.422 0-0.842 0-1.264 0.022l-106.927 4.085c-17.835 0.695-31.754 15.709-31.08 33.564 0.695 17.836 16.34 31.691 33.564 31.08l106.928-4.085c17.835-0.695 31.754-15.709 31.08-33.564-0.674-17.414-15.013-31.102-32.301-31.102zM631.618 198.85H386.093c-44.514 0-80.732 36.217-80.732 80.732v238.87c0 44.515 36.218 80.733 80.732 80.733h245.525c44.515 0 80.733-36.218 80.733-80.733v-238.87c0-44.515-36.218-80.733-80.733-80.733zM386.093 534.497c-8.844 0-16.045-7.201-16.045-16.046v-238.87c0-8.845 7.201-16.046 16.045-16.046h245.525c8.845 0 16.046 7.201 16.046 16.046v238.87c0 8.845-7.201 16.046-16.046 16.046H386.093z m99.916-219.224c-8.275 0-16.55 3.159-22.868 9.476l-48.915 48.936c-12.634 12.634-12.634 33.122 0 45.736 12.634 12.633 33.102 12.633 45.736 0l48.915-48.937c12.634-12.634 12.634-33.122 0-45.735-6.317-6.318-14.592-9.476-22.868-9.476z m0 0c-8.275 0-16.55 3.159-22.868 9.476-12.634 12.633-12.634 33.101 0 45.735l104.127 104.127c12.633 12.633 33.102 12.633 45.735 0 12.634-12.634 12.634-33.102 0-45.736L508.877 324.75c-6.317-6.318-14.592-9.476-22.868-9.476z"  horiz-adv-x="1024" />
      
      <glyph glyph-name="mark" unicode="&#59082;" d="M744.231 563.933c15.655 15.656 41.039 15.656 56.694 0 15.499-15.498 15.654-40.531 0.466-56.221l-0.466-0.472L508.56 214.875c-30.999-30.999-81.063-31.308-112.443-0.93l-0.946 0.93-172.097 172.098c-15.656 15.655-15.656 41.038 0 56.693 15.498 15.5 40.532 15.655 56.221 0.467l0.473-0.466 157.925-157.922c7.827-7.83 20.518-7.83 28.347 0l278.19 278.19z"  horiz-adv-x="1024" />
      
      <glyph glyph-name="locate" unicode="&#59083;" d="M512.92903226-80.51612903H512c-16.25806451 0-31.58709678 6.5032258-42.73548387 18.58064516-8.82580645 9.29032258-88.25806451 93.36774193-167.69032258 199.27741936C194.73548387 280.87741936 140.38709678 395.61290322 140.38709678 477.36774193 140.38709678 682.21935484 307.14838709 848.51612903 512 848.51612903s371.61290322-166.2967742 371.61290322-371.1483871c0-49.7032258-19.04516129-110.55483871-57.13548386-181.16129031-36.23225807-67.81935484-91.04516129-146.78709678-163.04516129-234.11612904l-0.46451614-0.46451613-106.83870967-121.70322581c-10.68387097-13.00645162-26.47741936-20.43870967-43.2-20.43870967zM512 304.1032258c96.15483871 0 173.72903226 78.03870968 173.72903226 173.72903227S608.15483871 651.0967742 512 651.0967742s-174.19354838-77.57419355-174.19354838-173.72903227 78.03870968-173.26451613 174.19354838-173.26451613z"  horiz-adv-x="1024" />
      
      <glyph glyph-name="checked" unicode="&#59084;" d="M512 834C263.4453125 834 62 632.5546875 62 384s201.4453125-450 450-450 450 201.4453125 450 450S760.5546875 834 512 834z m241.78710938-326.25L466.6484375 220.61132812000005l-0.08789063-0.08789062c-10.8984375-10.8984375-28.74023438-10.8984375-39.63867187 0l-0.08789063 0.08789063-156.62109374 156.62109374c-10.8984375 10.8984375-10.8984375 28.74023438-1e-8 39.63867188l0.08789063 0.08789063c10.8984375 10.8984375 28.74023438 10.8984375 39.63867187 0l136.75781251-136.75781251L714.06054688 547.4765625c10.8984375 10.8984375 28.74023438 10.8984375 39.63867187 0l0.08789062-0.08789063c10.8984375-10.8984375 10.8984375-28.74023438 0-39.63867187z"  horiz-adv-x="1024" />
      
      <glyph glyph-name="ring" unicode="&#59085;" d="M512 777.75c53.17382813 0 104.765625-10.37109375 153.28125-30.9375 46.84570313-19.86328125 89.03320313-48.25195313 125.15625-84.375 36.2109375-36.2109375 64.59960938-78.31054688 84.375-125.15625C895.37890625 488.765625 905.75 437.17382813 905.75 384s-10.37109375-104.765625-30.9375-153.28125c-19.86328125-46.84570313-48.25195313-89.03320313-84.375-125.15625-36.2109375-36.2109375-78.31054688-64.59960938-125.15625-84.375C616.765625 0.62109375 565.17382813-9.75 512-9.75s-104.765625 10.37109375-153.28125 30.9375c-46.84570313 19.86328125-89.03320313 48.25195313-125.15625 84.375-36.2109375 36.2109375-64.59960938 78.31054688-84.375 125.15625C128.62109375 279.234375 118.25 330.82617187000005 118.25 384s10.37109375 104.765625 30.9375 153.28125c19.86328125 46.84570313 48.25195313 89.03320313 84.375 125.15625s78.31054688 64.59960938 125.15625 84.375C407.234375 767.37890625 458.82617187 777.75 512 777.75m0 56.25C263.4453125 834 62 632.5546875 62 384s201.4453125-450 450-450 450 201.4453125 450 450S760.5546875 834 512 834z"  horiz-adv-x="1024" />
      
      <glyph glyph-name="delete" unicode="&#59086;" d="M561.1 187.546V482.202c0 47.155 49.102 47.155 49.102 0v-294.708c0.05-34.099-49.101-38.656-49.101 0.052z m-147.302 0V482.202c0 47.155 49.101 47.155 49.101 0v-294.708c0-38.656-49.1-34.099-49.1 0.052z m442.01 442.01H708.454v49.151c0 71.731-22.988 98.253-98.252 98.253H413.798c-74.035 0-98.252-24.166-98.252-98.253v-49.152H168.192c-53.094 0-53.094-49.1 0-49.1h687.616c53.094 0 53.094 49.1 0 49.1z m-491.162 49.151c0 47.667 2.97 49.101 49.101 49.101h196.455c46.08 0 49.1-1.126 49.1-49.1v-49.153H364.646v49.152z m343.91-687.616h-393.01c-70.964 0-98.253 27.239-98.253 98.253V482.202c0 49.612 49.1 49.612 49.1 0v-392.91c0-47.718-0.102-49.151 49.101-49.151h392.91c47.718 0 49.1-0.154 49.1 49.152V482.202c0 48.486 49.1 48.486 49.1 0v-392.91c0.103-69.426-23.96-98.2-98.047-98.2z"  horiz-adv-x="1024" />
      
      <glyph glyph-name="settings" unicode="&#59087;" d="M581.33333333 827.73333333c37.7024 0 68.26666667-30.56426667 68.26666667-68.26666666v-79.8624c0-18.85226667 15.28106667-34.13333333 34.13333333-34.13333334a34.13333333 34.13333333 0 0 1 17.06666667 4.5728l69.16266667 39.93066667c32.6528 18.8512 74.4032 7.664 93.25546666-24.98666667l68.26666667-118.24213333c18.8512-32.65066667 7.664-74.40213333-24.98773333-93.25333333L837.33333333 413.56053333c-16.3264-9.42613333-21.92-30.30186667-12.49493333-46.6272A34.13333333 34.13333333 0 0 1 837.33333333 354.43946667l69.16266667-39.93173334c32.6528-18.8512 43.84-60.60266667 24.9888-93.25333333l-68.26666667-118.24213333c-18.85226667-32.65066667-60.60266667-43.83786667-93.2544-24.98666667L700.8 117.95733332999998c-16.3264 9.42613333-37.20213333 3.83253333-46.6272-12.49386666a34.13333333 34.13333333 0 0 1-4.5728-17.06666667V8.533333330000005c0-37.7024-30.56426667-68.26666667-68.26666667-68.26666666H444.8c-37.7024 0-68.26666667 30.56426667-68.26666667 68.26666666v79.86346667c0 18.8512-15.28213333 34.13333333-34.13333333 34.13333333a34.13333333 34.13333333 0 0 1-17.06666667-4.5728l-69.16266666-39.93173333c-32.6528-18.8512-74.4032-7.664-93.25546667 24.98666667l-68.26666667 118.24213333c-18.8512 32.65066667-7.664 74.40213333 24.98773334 93.25333333L188.8 354.44053333c16.3264 9.42613333 21.92 30.30186667 12.49386667 46.6272A34.13333333 34.13333333 0 0 1 188.8 413.56053333l-69.16266667 39.93173334c-32.65066667 18.8512-43.83893333 60.60266667-24.98773333 93.25333333l68.26666667 118.24213333c18.85226667 32.65066667 60.60266667 43.83786667 93.2544 24.98666667L325.33333333 650.04373333c16.3264-9.42613333 37.20213333-3.83253333 46.6272 12.4928a34.13333333 34.13333333 0 0 1 4.57386667 17.06666667V759.46666667c0 37.7024 30.56426667 68.26666667 68.26666667 68.26666666h136.53333333z m-34.13333333-68.26666666h-68.26666667c-18.8512 0-34.13333333-15.28213333-34.13333333-34.13333334v-104.85013333c0-52.02666667-55.75786667-84.73706667-101.03146667-59.8912l-1.3696 0.77013333-90.80213333 52.4256c-16.32533333 9.42506667-37.20106667 3.83146667-46.6272-12.49386666l-34.13333333-59.12106667c-9.3312-16.16213333-3.9424-36.784 12.00746666-46.34026667l0.4864-0.28693333 90.80106667-52.42346667c45.056-26.0128 45.5072-90.656 1.35253333-117.44106666l-1.35146666-0.8-90.80213334-52.42666667c-16.32533333-9.42613333-21.92-30.30186667-12.49386666-46.6272l34.13333333-59.12c9.42613333-16.3264 30.3008-21.92 46.6272-12.49386667l90.80213333 52.42453334c45.056 26.01386667 101.264-5.9168 102.38293334-57.5488l0.01706666-1.5712V42.66666667000004c0.00106667-18.8512 15.2832-34.13333333 34.1344-34.13333334h68.26666667c18.6624 0 33.8272 14.97813333 34.12906667 33.568L581.33333333 42.66666667000004v104.8512c0 52.0256 55.75573333 84.73813333 101.0304 59.8912l1.36853334-0.77013334 90.80533333-52.42666666c16.16106667-9.3312 36.78293333-3.9424 46.34026667 12.00746666l0.28586666 0.4864 34.13333334 59.12106667c9.42506667 16.32533333 3.83146667 37.20106667-12.49386667 46.6272L752 324.87893333c-45.056 26.01386667-45.50613333 90.656-1.35146667 117.44213334l1.35146667 0.8 90.8032 52.42453333c16.32533333 9.42613333 21.92 30.30186667 12.49386667 46.6272l-34.13333334 59.12106667c-9.42613333 16.32533333-30.30186667 21.92-46.6272 12.49386666l-90.80426666-52.4256c-45.056-26.0128-101.26293333 5.91893333-102.38293334 57.55093334l-0.01706666 1.57013333V725.33333333c0.00106667 18.6624-14.976 33.8272-33.568 34.12906667L547.2 759.46666667z m-35.2-240c74.816 0 135.46666667-60.65066667 135.46666667-135.46666667s-60.65066667-135.46666667-135.46666667-135.46666667-135.46666667 60.65066667-135.46666667 135.46666667 60.65066667 135.46666667 135.46666667 135.46666667z m0-68.26666667c-37.1136 0-67.2-30.0864-67.2-67.2s30.0864-67.2 67.2-67.2 67.2 30.0864 67.2 67.2-30.0864 67.2-67.2 67.2z"  horiz-adv-x="1024" />
      
      <glyph glyph-name="cart" unicode="&#59089;" d="M351.9425-59.20833332999996a56.19375 56.19375 0 1 0 56.19375 56.19375 56.4046875 56.4046875 0 0 0-56.19375-56.19375z m60.403125 147.534375a105.2315625 105.2315625 0 0 0-103.1278125 84.1865625l-87.3421875 523.003125a85.659375 85.659375 0 0 1-85.4484375 50.510625h-27.15A19.363125 19.363125 0 0 0 109.488125 784.54166667h42.0928125a105.2315625 105.2315625 0 0 0 102.285-84.185625l6.103125-37.0415625H875.365625a73.03125 73.03125 0 0 0 58.9303125-27.991875 67.7690625 67.7690625 0 0 0 10.734375-60.403125L877.8903125 313.52291667C865.475 269.53635417 821.0665625 222.60416667000004 774.764375 222.60416667000004l-435.8709375-32.6221875 2.1046875-12.628125a78.5034375 78.5034375 0 0 1 64.8225-50.5115625H906.725a19.363125 19.363125 0 1 0 0-38.514375zM332.579375 228.70729167000002l435.8709375 32.20125a84.185625 84.185625 0 0 1 70.9265625 57.035625l66.928125 261.6065625a39.988125 39.988125 0 0 1-2.5265625 35.3578125 33.885 33.885 0 0 1-28.4128125 10.1025H266.4940625zM788.234375-59.20833332999996a56.19375 56.19375 0 1 0 56.19375 56.19375A56.19375 56.19375 0 0 0 788.234375-59.20833332999996z"  horiz-adv-x="1041" />
      
      <glyph glyph-name="mail" unicode="&#58948;" d="M960.246 111.851c0-44.024-36.02-80.044-80.043-80.044L143.798 31.807c-44.024 0-80.044 36.02-80.044 80.044L63.754 656.149c0 44.024 36.02 80.044 80.044 80.044l736.405 0c44.023 0 80.043-36.02 80.043-80.044L960.246 111.851zM880.203 672.158 143.798 672.158c-8.505 0-16.009-7.504-16.009-16.009 0-57.031 28.516-106.559 73.541-142.078 67.036-52.529 134.073-105.558 200.609-158.587 26.515-21.512 74.541-67.537 109.561-67.537l0.5 0 0.501 0c35.019 0 83.046 46.025 109.56 67.537 66.537 53.029 133.574 106.058 200.611 158.587 32.518 25.514 73.539 81.044 73.539 123.568C896.211 650.146 899.213 672.158 880.203 672.158zM896.211 496.062c-10.506-12.007-22.012-23.013-34.518-33.018-71.541-55.03-143.58-111.061-213.117-169.093-37.521-31.517-84.047-70.038-136.075-70.038L512 223.913l-0.5 0c-52.028 0-98.554 38.521-136.075 70.038-69.538 58.032-141.577 114.063-213.116 169.093-12.507 10.005-24.014 21.011-34.52 33.018l0-384.211c0-8.505 7.504-16.009 16.009-16.009l736.405 0c8.504 0 16.008 7.504 16.008 16.009L896.211 496.062z"  horiz-adv-x="1024" />
      
      <glyph glyph-name="preview" unicode="&#58909;" d="M992.45678647 309.1806266c-8.69196285-10.59235556-216.80059517-258.54693757-480.45678647-258.54693759S40.23517637 298.58827103 31.51205919 309.1806266l-18.06931212 21.83894525 18.06931212 21.87009858C40.23517637 363.45087265999996 248.31265434 611.40545365 512 611.40545365s471.76482363-247.95458202 480.45678647-258.51578322l18.06931213-21.87009858L992.45678647 309.1806266zM512 544.11284257c-190.81816969 0-355.77853029-154.71069879-411.17031958-213.06211637 55.51640465-58.2891099 220.78830565-213.12442505 411.17031958-213.12442507 190.81816969 0 355.77853029 154.71069879 411.17031958 213.06211636C867.65391496 389.30868175 702.38201395 544.11284257 512 544.11284257zM512 185.21891327000003c-77.79150565 0-141.06525292 65.42337273-141.06525292 145.80065858s63.27374728 145.80065859 141.06525292 145.80065859 141.06525292-65.42337273 141.06525292-145.80065859S589.76035132 185.21891327000003 512 185.21891327000003zM512 409.52761932c-41.8709588 0-75.95342061-35.23515939-75.95342061-78.53920079s34.08246184-78.50804748 75.95342061-78.50804747 75.95342061 35.20400504 75.95342061 78.50804747S553.8709588 409.52761932 512 409.52761932z"  horiz-adv-x="1024" />
      
      <glyph glyph-name="heart" unicode="&#58951;" d="M720.77557063 662.72434729c40.26390094 0 78.11695687-15.67864969 106.58469562-44.14734843 28.46773875-28.46869781 44.14638844-66.32079469 44.14638844-106.58373656 0-30.39891-9.02364188-59.69744531-26.09622657-84.72879375l-0.51517031-0.73102407-0.62933344-1.01115468c-2.51349563-3.916065-8.14967438-11.73572344-12.80827593-16.39528407-11.11982062-11.12077969-256.39864219-273.18342187-321.37155-342.61634625-64.97386781 69.43292437-310.25364844 331.49556563-321.37442813 342.61634625-4.65380437 4.65380437-10.28038969 12.46291031-12.79580437 16.37993438l-0.44705719 0.7195125-0.70895906 1.039935c-17.07354375 25.02943031-26.09718656 54.32700656-26.09718656 84.72591562 0 40.26294188 15.67864969 78.11503781 44.14734843 106.58373657 28.46869781 28.46965781 66.32079469 44.14734844 106.58469563 44.14734843 40.25622656 0 78.1083225-15.68056875 106.58373656-44.15406375l16.98144656-16.9795275 0.18323532-0.00479718c9.92830875-9.89089406 23.03973937-22.98121875 35.24746218-35.18606344 13.81079625-13.80312188 32.16986906-21.4050075 51.69551063-21.4050075 19.49782031 0 37.83578719 7.58173969 51.64178719 21.349365l52.36897406 52.12913625 0.04700812 0.04700812 0.04700813 0.04700813C642.66820719 647.0428194799999 680.52126219 662.72434729 720.77557063 662.72434729M720.77557063 722.68369542c-58.17687563 0-110.84708531-23.58656813-148.97931188-61.7139975l-52.39871344-52.15887656c-2.57297531-2.57009719-5.94317062-3.85562625-9.31240593-3.85562625-3.36923531 0-6.73847156 1.28552812-9.31048782 3.85562625 0 0-52.16463281 52.15407937-52.4006325 52.15887656 0 0 0 0-0.00095906 0-38.12934844 38.12742937-90.80243625 61.7139975-148.97931188 61.7139975-116.36430469 0-210.69043219-94.32900469-210.69043218-210.69043219 0-43.95835594 13.48941375-84.7451025 36.52339687-118.51324781 0 0 9.668325-15.33040594 21.08746313-26.74954406 11.41913812-11.41913812 326.53093219-348.1748175 326.53093218-348.1748175 10.28422687-10.287105 23.76308906-15.42825938 37.24003126-15.42825938 13.47886125 0 26.95484438 5.14115438 37.24195031 15.42825938 0 0 315.10891594 336.75567937 326.52901312 348.1748175 11.41913812 11.41913812 21.09034031 26.74954406 21.09034032 26.74954406 23.031105 33.76814531 36.52051875 74.55585094 36.52051875 118.51324781C931.46600188 628.3546897900001 837.14275344 722.68369542 720.77557063 722.68369542L720.77557063 722.68369542z"  horiz-adv-x="1024" />
      
      <glyph glyph-name="filter" unicode="&#58921;" d="M796.14610659 800.84423466c-9.15692698 2.50170917-19.01778927 3.57345786-28.52716299 3.57345785H256.3560873c-39.79781792 0-70.4387098-17.15567252-91.2177784-51.82234638-20.42854103-34.31038498-18.23126332-82.66299018 6.33926372-115.08340817 4.12277821-5.44037678 140.90142771-168.33379399 216.27248879-244.81501841 2.46521558-2.50170917 3.97296357-5.00437841 3.97296357-8.57783626 0-5.71791715-0.04513603-15.55285028-0.08259063-28.21889128a30.215457 30.215457 0 0 1-0.04897722-1.67388838v-180.28917737-51.95199315c0-16.57562174 13.43720126-30.01282301 30.01282302-30.01282302s30.15111317 13.43720126 30.15111411 30.01282302V324.21348062000004 354.22534356999995l-0.00288113 0.10659874-0.00384212 29.78618092c0 13.296991-3.68485878 32.8881078-21.24483733 50.71122203-72.07610459 73.13824984-201.73472761 227.36835997-211.50723796 239.36888032-9.17805396 12.56616551-10.2642092 34.20570637-2.32308424 47.62178064 9.76098586 16.24141992 20.89527076 22.57204026 39.68161576 22.57204026h511.26285536c4.76717188 0 9.28273257-0.51570695 12.71117797-1.45300853l0.72218305-0.19206955c18.48095346-4.80174443 31.28816667-22.17925779 31.14315327-42.25823131l-0.00096006-0.43119713c0-8.07557393-1.74303345-19.2252245-15.33485062-33.88302904-33.03312026-35.62414143-62.25941826-67.85633106-90.52248644-99.02733551-37.47665474-41.33245515-72.87511509-80.3715983-115.00369962-125.04798902-12.95702692-13.73971168-19.52677391-30.36142952-19.52677297-49.4041879V-5.926616220000028c0-16.57562174 13.72626613-30.01282301 30.30188787-30.01282301s30.01282301 13.43720126 30.01282302 30.01282301V324.21348062000004v30.01282301c0 1.40018827 0.18534725 2.77540836 0 4.12373828 0 11.4473588-0.28906486 22.88415317-0.28906487 34.34495658 0 3.57345786 0.76059678 5.66509782 3.1701119 8.21962633 74.98980309 79.52553071 130.07637555 142.70304276 205.87383156 224.44601902 19.44610434 20.97209914 31.3448272 45.38992948 31.3448272 74.69593606 0.35244769 48.96530839-32.04876251 89.3508604-76.07403727 100.78765477z"  horiz-adv-x="1024" />
      
      <glyph glyph-name="close" unicode="&#59105;" d="M861.52533333-4.361481479999952c-9.70903703 0-19.41807408 3.88361482-27.1853037 11.65084445l-699.05066666 699.05066666c-15.53445925 15.53445925-15.53445925 38.83614815 0 54.3706074 15.53445925 15.53445925 38.83614815 15.53445925 54.3706074 0l699.05066666-699.05066666c15.53445925-15.53445925 15.53445925-38.83614815 0-54.3706074-7.76722963-7.76722963-17.47626667-11.65084445-27.1853037-11.65084445zM162.47466667-4.361481479999952c-9.70903703 0-19.41807408 3.88361482-27.1853037 11.65084445-15.53445925 15.53445925-15.53445925 38.83614815 0 54.3706074l699.05066666 699.05066666c15.53445925 15.53445925 38.83614815 15.53445925 54.3706074 0 15.53445925-15.53445925 15.53445925-38.83614815 0-54.3706074l-699.05066666-699.05066666c-7.76722963-7.76722963-17.47626667-11.65084445-27.1853037-11.65084445z"  horiz-adv-x="1024" />
      
      <glyph glyph-name="weixin" unicode="&#58912;" d="M690.97244445 546.24711111c11.15022222 0 22.30044445 0 33.45066666-1.82044444C692.90666667 687.55911111 540.33066667 793.6 365.45422222 793.6 170.21155555 793.6 10.24 659.6835555499999 10.24 492.31644445c0-96.71111111 52.11022222-178.51733333 141.312-239.95733334l-35.38488889-106.04088889L240.75377778 207.64444445000004c44.60088889-9.32977778 79.98577778-18.54577778 124.58666667-18.54577778 11.15022222 0 22.30044445 0 35.38488888 1.82044444-7.39555555 24.23466667-11.15022222 48.35555555-11.15022222 74.41066667 0.11377778 154.39644445 132.20977778 280.91733333 301.39733334 280.91733333z m-191.60177778 96.71111111c27.87555555 0 44.60088889-18.54577778 44.60088888-44.60088889 0-26.05511111-18.54577778-44.60088889-44.60088888-44.60088888-27.87555555 0-53.93066667 18.65955555-53.93066667 44.60088888 0 27.87555555 27.98933333 44.60088889 53.93066667 44.60088889z m-246.10133334-83.17155555c-28.10311111 0-54.38577778 18.432-54.38577778 44.14577778 0 27.648 28.10311111 44.14577778 54.38577778 44.14577777s44.94222222-18.432 44.94222222-44.14577777c0.11377778-25.82755555-18.65955555-44.14577778-44.94222222-44.14577778zM1014.67022222 269.08444445c0 143.24622222-141.312 258.50311111-301.28355555 258.5031111-169.30133333 0-303.21777778-117.19111111-303.21777778-258.5031111 0-143.24622222 133.91644445-258.50311111 303.21777778-258.50311112 35.38488889 0 70.656 9.32977778 106.04088888 18.54577778l96.71111112-53.93066666-26.05511112 89.31555555c70.656 53.93066667 124.58666667 124.58666667 124.58666667 204.57244445z m-399.92888889 44.60088888c-16.72533333 0-35.38488889 16.72533333-35.38488888 35.38488889 0 16.72533333 18.54577778 35.38488889 35.38488888 35.38488889 26.05511111 0 44.60088889-18.54577778 44.60088889-35.38488889 0-18.65955555-16.72533333-35.38488889-44.60088889-35.38488889z m202.52444445 8.64711112c-16.83911111 0-35.61244445 16.61155555-35.61244445 34.92977777 0 16.61155555 18.77333333 34.92977778 35.61244445 34.92977778 26.28266667 0 44.94222222-18.432 44.94222222-34.92977778 0-18.432-18.65955555-34.92977778-44.94222222-34.92977777z"  horiz-adv-x="1024" />
      
      <glyph glyph-name="camera-plus" unicode="&#58934;" d="M853.333333 448a42.666667 42.666667 0 0 1-42.666666-42.666667v-298.666666a42.666667 42.666667 0 0 0-42.666667-42.666667H170.666667a42.666667 42.666667 0 0 0-42.666667 42.666667v341.333333a42.666667 42.666667 0 0 0 42.666667 42.666667h85.333333a42.666667 42.666667 0 0 1 42.666667 29.013333l23.04 69.973333a42.666667 42.666667 0 0 0 40.533333 29.013334H597.333333a42.666667 42.666667 0 0 1 0 85.333333H360.106667A128 128 0 0 1 238.933333 616.533333l-13.653333-42.666666H170.666667a128 128 0 0 1-128-128v-341.333334a128 128 0 0 1 128-128h597.333333a128 128 0 0 1 128 128v298.666667a42.666667 42.666667 0 0 1-42.666667 44.8z m-384 42.666667a170.666667 170.666667 0 1 1 170.666667-170.666667 170.666667 170.666667 0 0 1-170.666667 170.666667z m0-256a85.333333 85.333333 0 1 0 85.333334 85.333333 85.333333 85.333333 0 0 0-85.333334-85.333333z m469.333334 469.333333h-42.666667v42.666667a42.666667 42.666667 0 0 1-85.333333 0v-42.666667h-42.666667a42.666667 42.666667 0 0 1 0-85.333333h42.666667v-42.666667a42.666667 42.666667 0 0 1 85.333333 0v42.666667h42.666667a42.666667 42.666667 0 0 1 0 85.333333z"  horiz-adv-x="1024" />
      
      <glyph glyph-name="help" unicode="&#58903;" d="M512 832.8275261C264.24720578 832.8275261 63.1724739 631.7527942199999 63.1724739 384S264.24720578-64.8275261 512-64.8275261 960.8275261 136.24720577999994 960.8275261 384 759.75279422 832.8275261 512 832.8275261z m0-837.81138199c-214.24033873 0-388.98385589 174.74351716-388.98385589 388.98385589S297.75966127 772.98385589 512 772.98385589 900.98385589 598.2403387300001 900.98385589 384 726.24033873-4.9838558899999725 512-4.9838558899999725zM512 186.51588902000003m-35.90620171 0a35.90620171 35.90620171 0 1 1 71.81240342 0 35.90620171 35.90620171 0 1 1-71.81240342 0ZM512 648.50902196c-77.7967716 0-140.03418803-63.43429007-140.03418803-140.03418803 0-16.75622774 13.16560789-29.92183458 29.92183457-29.92183564s29.92183458 13.16560789 29.92183564 29.92183564a80.19051782 80.19051782 0 0 0 160.38103564 0c0-15.55935411-10.77186062-32.31558186-33.51245549-49.0718096-47.87493596-37.10307534-77.7967716-94.55299829-77.79677055-155.59354215v-2.39374727c0-16.75622774 13.16560789-29.92183458 29.92183459-29.92183458s29.92183458 13.16560789 29.92183563 29.92183458v2.39374727c0 41.89056884 20.3468476 82.58426509 53.85930309 107.71860618 38.29994898 28.724962 57.44992294 61.04054386 57.44992294 96.94674557 0 77.7967716-62.23741644 140.03418803-140.03418803 140.03418803z"  horiz-adv-x="1024" />
      
      <glyph glyph-name="home" unicode="&#59577;" d="M155.584 553.44l312.874667 224.565333a74.666667 74.666667 0 0 0 87.082666 0l312.874667-224.565333A117.333333 117.333333 0 0 0 917.333333 458.133333V96c0-64.8-52.533333-117.333333-117.333333-117.333333H224c-64.8 0-117.333333 52.533333-117.333333 117.333333V458.122667a117.333333 117.333333 0 0 0 48.917333 95.317333z m37.322667-51.989333A53.333333 53.333333 0 0 1 170.666667 458.122667V96a53.333333 53.333333 0 0 1 53.333333-53.333333h576a53.333333 53.333333 0 0 1 53.333333 53.333333V458.122667a53.333333 53.333333 0 0 1-22.24 43.328L518.218667 726.016a10.666667 10.666667 0 0 1-12.437334 0L192.906667 501.44z"  horiz-adv-x="1024" />
      
      <glyph glyph-name="phone" unicode="&#58904;" d="M744.0897461 831.44589844H287.60253907c-28.48095703 0-51.79570313-22.90429688-51.79570312-51.440625v-793.03886719c0-28.26298828 23.04228516-51.16728516 51.79570312-51.16728516h456.48720703c28.42822266 0 51.49599609 22.90429688 51.4959961 51.16728516V780.27861328c0 28.26210937-23.06777344 51.16728516-51.4959961 51.16728516M472.8381836 780.27861328h86.26201172c5.95898438 0 10.82460938-4.865625 10.82460938-10.76923828 0-5.93173828-4.86474609-10.76923828-10.82460938-10.76923828H472.83906251c-5.95898438 0-10.85009766 4.8375-10.85009766 10.76923828-0.00087891 5.90361328 4.89199219 10.76923828 10.85009766 10.76923828m42.85810547-808.12792969c-26.04814453 0-47.45039063 21.04628906-47.45039063 47.17705078 0 25.80205078 21.12890625 47.12167969 47.45039063 47.12167969 26.29423828 0 47.44951172-20.99179687 47.44951172-47.12167969 0-26.13076172-21.15439453-47.17705078-47.44951172-47.17705078m232.65966797 155.96191407c0-14.26816406-11.59013672-25.58320313-25.69394531-25.58320313H309.03203126c-14.37626953 0-25.77480469 11.58925781-25.77480469 25.58320313V690.29882813c0 14.26728516 11.671875 25.61044922 25.77480469 25.61044921H722.3341797c14.43251953 0 25.80292969-11.58837891 25.80292968-25.61044922v-562.18535156h0.21884766z m0 0"  horiz-adv-x="1024" />
      
      <glyph glyph-name="clock" unicode="&#58889;" d="M540.2375 533.79375a28.125 28.125 0 0 1-56.25 0v-179.803125a28.125 28.125 0 0 1 28.125-28.125h298.378125a28.125 28.125 0 0 1 0 56.25h-270.253125v151.678125zM118.25 384c0-217.490625 176.259375-393.75 393.75-393.75s393.75 176.259375 393.75 393.75S729.490625 777.75 512 777.75 118.25 601.490625 118.25 384z m-56.25 0C62 632.540625 263.43125 834 512 834c248.540625 0 450-201.43125 450-450 0-248.540625-201.43125-450-450-450-248.540625 0-450 201.43125-450 450z m478.125 0V684.009375a28.125 28.125 0 0 1-56.25 0V384a28.125 28.125 0 0 1 56.25 0z"  horiz-adv-x="1024" />
      
      <glyph glyph-name="sort" unicode="&#58902;" d="M554.51092948 253.94118304999995c16.64985889 9.62580311 38.00669578 4.14646586 47.93923585-12.40739982 9.9314367-16.55386566 4.71690834-37.97580141-11.61297313-48.13784252l-0.49762004-0.30453022-176.53925926-105.92355555-0.48106949-0.28246282a35.30785186 35.30785186 0 0 0-35.36302037-0.00441348l-0.48768971 0.2868763-176.53925925 105.92355555-0.49872341 0.30453022c-16.1654793 10.06053105-21.4384863 31.15697251-11.90536629 47.64022248l0.29349652 0.49762004 0.30453023 0.49872341c10.05942766 16.1654793 31.15586914 21.4384863 47.63911909 11.9053663l0.49872342-0.29349651 149.29042458-89.57602016a17.65392594 17.65392594 0 0 1 17.79957082-0.21405384l0.36631896 0.21405384 149.29042461 89.57602016 0.50313688 0.29680662zM413.31924341 642.31982982l0.48106949-0.28356618 176.53925926-105.92355556c16.72047459-10.03294678 22.14243659-31.72189814 12.11059317-48.44237275-9.93254007-16.55386566-31.28827359-22.0343063-47.93923584-12.40629643l-0.50313688 0.29570325-149.29042461 89.57602016a17.65392594 17.65392594 0 0 1-18.16588978-1e-8L237.26105364 475.55974215c-16.55386566-9.93254007-37.97690478-4.71690834-48.13784251 11.61297316l-0.30453023 0.49762002c-9.93254007 16.55386566-4.71690834 37.97580141 11.61186977 48.13784253l0.49872341 0.30453022 176.53925925 105.92355556a35.30785186 35.30785186 0 0 0 35.85071008 0.28356618z"  horiz-adv-x="1024" />
      
      <glyph glyph-name="search" unicode="&#58930;" d="M928.41600001-38.603999990000034l-163.07200001 163.07200001c163.072 153.088 173.056 409.344 23.29600001 575.744S375.968 873.26800002 209.56800001 720.18000001C43.168 567.09200001 36.512 310.83600001 189.60000001 144.43600001000004c136.448-146.432 356.096-173.056 522.49599999-63.232l166.40000001-169.728c13.312-13.312 33.28-13.312 46.59199999 0 13.312 13.312 16.64 36.608 3.32800001 49.92z m-785.40800001 465.91999999c0 189.696 153.088 342.784 342.784 342.78400001 189.696 0 342.784-153.088 342.78400001-342.78400001 0-189.696-153.088-342.784-342.78400001-342.78399999C296.096 81.20400000999996 143.008 237.62000001 143.008 427.316z"  horiz-adv-x="1024" />
      
      <glyph glyph-name="user" unicode="&#59067;" d="M512 288.01599999999996C353.216 288.01599999999996 224 417.2 224 576S353.216 864 512 864c158.8 0 288.032-129.216 288.032-288S670.8 288.01599999999996 512 288.01599999999996zM512 800c-123.52 0-224-100.48-224-224s100.48-224.032 224-224.032c123.536 0 224 100.512 224 224.032 0 123.52-100.464 224-224 224z m384.048-896c-17.664 0-32.016 14.288-32.016 32.016 0 230.288-121.712 352-352.032 352-230.272 0-352-121.712-352-352C160-81.71199999999999 145.664-96 127.984-96s-32.016 14.288-32.016 32.016c0 264.4 151.632 415.936 416.032 415.936s416.032-151.536 416.032-415.936c0-17.728-14.336-32.016-31.984-32.016z"  horiz-adv-x="1024" />
      
      <glyph glyph-name="scan" unicode="&#59068;" d="M103.57333333 486.4c16.42666667 0 29.86666667 13.33333333 29.86666667 29.76V694.6133333299999c0 38.29333333 31.25333333 69.54666667 69.76 69.54666667H381.86666667c16.53333333 0 29.97333333 13.33333333 29.97333333 29.86666667s-13.44 29.86666667-29.97333333 29.86666666H203.09333333c-71.46666667 0-129.49333333-57.92-129.49333333-129.06666666V516.26666667c0-16.53333333 13.44-29.86666667 29.97333333-29.86666667zM377.6-0.9600000000000364H203.62666667c-38.29333333 0-69.54666667 31.25333333-69.54666667 69.65333333V251.62666666999996c0 16.53333333-13.44 29.97333333-29.86666667 29.97333333-16.53333333 0-29.86666667-13.44-29.86666666-29.97333333v-183.04c0-71.36 57.92-129.38666667 129.17333333-129.38666667H377.6c16.42666667 0 29.86666667 13.33333333 29.86666667 29.97333333 0 16.53333333-13.44 29.86666667-29.86666667 29.86666667zM929.06666667 281.6c-16.53333333 0-29.86666667-13.54666667-29.86666667-30.08v-182.29333333c0-38.50666667-31.14666667-69.97333333-69.54666667-69.97333334H650.34666667c-16.53333333 0-29.86666667-13.44-29.86666667-30.08s13.44-30.08 29.86666667-30.08h179.30666666c71.25333333 0 129.17333333 58.34666667 129.28 129.92v182.4c0 16.74666667-13.33333333 30.18666667-29.86666666 30.18666667zM829.54666667 823.78666667H650.77333333c-16.53333333 0-29.97333333-13.33333333-29.97333333-29.76 0-16.42666667 13.44-29.76 29.97333333-29.76h178.77333334c38.4 0 69.65333333-31.04 69.65333333-69.22666667v-178.98666667c0-16.42666667 13.44-29.76 29.97333333-29.76s29.86666667 13.22666667 29.86666667 29.76v179.2c-0.10666667 70.93333333-58.13333333 128.53333333-129.49333333 128.53333334z m99.62666666-410.56H103.36c-16.32 0-29.76-13.44-29.76-29.76v-4.48c0-16.32 13.44-29.76 29.76-29.76h825.81333333c16.32 0 29.76 13.44 29.76 29.76v4.48c0 16.32-13.44 29.76-29.76 29.76z"  horiz-adv-x="1024" />
      
      <glyph glyph-name="clear" unicode="&#59070;" d="M512-96.49961289999999C246.62916129-96.49961289999999 31.5003871 118.62916128999996 31.5003871 384S246.62916129 864.4996129 512 864.4996129 992.4996129 649.37083871 992.4996129 384 777.37083871-96.49961289999999 512-96.49961289999999z m0 518.24929032L370.70348387 563.04516129a26.69729032 26.69729032 0 0 1-37.74967742-37.74967742L474.25032258 384 332.95483871 242.70348387a26.69729032 26.69729032 0 0 1 37.74967742-37.74967742L512 346.25032258 653.29651613 204.95483871a26.69729032 26.69729032 0 0 1 37.74967742 37.74967742L549.74967742 384 691.04516129 525.29651613a26.69729032 26.69729032 0 0 1-37.74967742 37.74967742L512 421.74967742z"  horiz-adv-x="1024" />
      
    </font>
</defs>
</svg>
